{"title":"Inner.Demons.2014.720p.WEB-DL.H264.AAC.Mp4.Raven","uid":11172703,"size":768673951,"categoryP":"video","categoryS":"movies","magnet":"?xt=urn:btih:844d09641404c1ace6f31f18c8b552219e0203a5&amp;dn=Inner.Demons.2014.720p.WEB-DL.H264.AAC.Mp4.Raven&amp;tr=udp%3A%2F%2Ftracker.openbittorrent.com%3A80&amp;tr=udp%3A%2F%2Fopen.demonii.com%3A1337&amp;tr=udp%3A%2F%2Ftracker.coppersurfer.tk%3A6969&amp;tr=udp%3A%2F%2Fexodus.desync.com%3A6969","seeders":1,"leechers":0,"uploader":"Raven1969","files":-1,"time":1412720229,"description":"Inner.Demons.2014.720p.WEB-DL.H264.AAC.Mp4.Raven. \n\n\n\n\n\nRuntime:\n85 Mins\n\n\n\nScreen images:\n\n\n &lt;a href=&quot;\nhttp://i.imgur.com/1zxRCFB.png&quot; rel=&quot;nofollow&quot; target=&quot;_NEW&quot;&gt;\nhttp://i.imgur.com/1zxRCFB.png&lt;/a&gt;\n\n\n &lt;a href=&quot;\nhttp://i.imgur.com/ev5joHo.png&quot; rel=&quot;nofollow&quot; target=&quot;_NEW&quot;&gt;\nhttp://i.imgur.com/ev5joHo.png&lt;/a&gt;\n\n\n &lt;a href=&quot;\nhttp://i.imgur.com/cVNVGVW.png&quot; rel=&quot;nofollow&quot; target=&quot;_NEW&quot;&gt;\nhttp://i.imgur.com/cVNVGVW.png&lt;/a&gt;\n\n\n &lt;a href=&quot;\nhttp://i.imgur.com/1oG5P3T.png&quot; rel=&quot;nofollow&quot; target=&quot;_NEW&quot;&gt;\nhttp://i.imgur.com/1oG5P3T.png&lt;/a&gt;\n\n\n &lt;a href=&quot;\nhttp://i.imgur.com/qqSVcnp.png&quot; rel=&quot;nofollow&quot; target=&quot;_NEW&quot;&gt;\nhttp://i.imgur.com/qqSVcnp.png&lt;/a&gt;\n\n\n\nIMDB:\n\n\n\n &lt;a href=&quot;\nhttp://www.imdb.com/title/tt3038142&quot; rel=&quot;nofollow&quot; target=&quot;_NEW&quot;&gt;\nhttp://www.imdb.com/title/tt3038142&lt;/a&gt;\n\n\n\n\nIMDB Rating:  5.3\n\n\n\n\nStoryline:\n\nINNER DEMONS follows an 'Intervention'-style reality show crew that films an episode about a sixteen-year old girl, a former A-student, who is fighting addiction but may in fact be suffering from something even more destructive: demonic possession. The movie is an inquiry into the truth about her - with symptoms that straddle the disturbing and scary intersection between insanity, addiction and true possession.\n\n\n\n\nGeneral\nFormat                                   : MPEG-4\nFormat profile                           : Base Media\nCodec ID                                 : isom\nFile size                                : 728 MiB\nDuration                                 : 1h 23mn\nOverall bit rate mode                    : Variable\nOverall bit rate                         : 1 218 Kbps\nEncoded date                             : UTC 2014-10-07 16:58:05\nTagged date                              : UTC 2014-10-07 16:58:05\nWriting application                      : My MP4Box GUI 0.6.0.6 &lt;http://my-mp4box-gui.zymichost.com&gt;\n\nVideo\nID                                       : 1\nFormat                                   : AVC\nFormat/Info                              : Advanced Video Codec\nFormat profile                           : &lt;a class=&quot;__cf_email__&quot; href=&quot;/cdn-cgi/l/email-protection&quot; data-cfemail=&quot;f7bf9e909fb7bbc3d9c7&quot;&gt;[email&amp;#160;protected]&lt;/a&gt;&lt;script cf-hash='f9e31' type=&quot;text/javascript&quot;&gt;\n/* &lt;![CDATA[ */!function(){try{var t=&quot;currentScript&quot;in document?document.currentScript:function(){for(var t=document.getElementsByTagName(&quot;script&quot;),e=t.length;e--;)if(t[e].getAttribute(&quot;cf-hash&quot;))return t[e]}();if(t&amp;&amp;t.previousSibling){var e,r,n,i,c=t.previousSibling,a=c.getAttribute(&quot;data-cfemail&quot;);if(a){for(e=&quot;&quot;,r=parseInt(a.substr(0,2),16),n=2;a.length-n;n+=2)i=parseInt(a.substr(n,2),16)^r,e+=String.fromCharCode(i);e=document.createTextNode(e),c.parentNode.replaceChild(e,c)}}}catch(u){}}();/* ]]&gt; */&lt;/script&gt;\nFormat settings, CABAC                   : Yes\nFormat settings, ReFrames                : 5 frames\nCodec ID                                 : avc1\nCodec ID/Info                            : Advanced Video Coding\nDuration                                 : 1h 23mn\nBit rate                                 : 1 121 Kbps\nMaximum bit rate                         : 11.5 Mbps\nWidth                                    : 1 280 pixels\nHeight                                   : 684 pixels\nDisplay aspect ratio                     : 1.85:1\nFrame rate mode                          : Constant\nFrame rate                               : 23.976 fps\nColor space                              : YUV\nChroma subsampling                       : 4:2:0\nBit depth                                : 8 bits\nScan type                                : Progressive\nBits/(Pixel*Frame)                       : 0.053\nStream size                              : 669 MiB (92%)\nTitle                                    : Inner.Demons.2014.720p.WEB-DL.H264.AAC.Mp4.Raven.mp4\nWriting library                          : x264 core 142 \nLanguage                                 : English\nEncoded date                             : UTC 2014-10-07 16:50:27\nTagged date                              : UTC 2014-10-07 16:58:09\n\nAudio\nID                                       : 2\nFormat                                   : AAC\nFormat/Info                              : Advanced Audio Codec\nFormat profile                           : LC\nCodec ID                                 : 40\nDuration                                 : 1h 23mn\nBit rate mode                            : Variable\nBit rate                                 : 93.4 Kbps\nMaximum bit rate                         : 100 Kbps\nChannel(s)                               : 2 channels\nChannel positions                        : Front: L R\nSampling rate                            : 48.0 KHz\nCompression mode                         : Lossy\nStream size                              : 55.8 MiB (8%)\nTitle                                    : Audio AAC LC 96kb.aac\nEncoded date                             : UTC 2014-10-07 16:58:07\nTagged date                              : UTC 2014-10-07 16:58:09\n\n\n\n\nPLEASE  SEED FOR AS LONG AS POSSIBLE TO KEEP THE TORRENT ALIVE :-)","torrent":{"xt":"urn:btih:844d09641404c1ace6f31f18c8b552219e0203a5","amp;dn":"Inner.Demons.2014.720p.WEB-DL.H264.AAC.Mp4.Raven","amp;tr":["udp%3A%2F%2Ftracker.openbittorrent.com%3A80","udp%3A%2F%2Fopen.demonii.com%3A1337","udp%3A%2F%2Ftracker.coppersurfer.tk%3A6969","udp%3A%2F%2Fexodus.desync.com%3A6969"],"infoHash":"844d09641404c1ace6f31f18c8b552219e0203a5","infoHashBuffer":{"type":"Buffer","data":[132,77,9,100,20,4,193,172,230,243,31,24,200,181,82,33,158,2,3,165]},"announce":[],"urlList":[]}}